<?xml version="1.0" standalone="no"?>
<!DOCTYPE svg PUBLIC "-//W3C//DTD SVG 20010904//EN"
 "http://www.w3.org/TR/2001/REC-SVG-20010904/DTD/svg10.dtd">
<svg version="1.0" xmlns="http://www.w3.org/2000/svg"
 width="256.000000pt" height="256.000000pt" viewBox="0 0 256.000000 256.000000"
 preserveAspectRatio="xMidYMid meet">
<metadata>
Created by potrace 1.14, written by Peter Selinger 2001-2017
</metadata>
<g transform="translate(0.000000,256.000000) scale(0.100000,-0.100000)"
fill="#000000" stroke="none">
<path d="M515 2470 c-46 -19 -69 -58 -73 -125 l-4 -65 -89 -1 c-49 -1 -92 -2
-96 -3 -31 -7 -51 -20 -68 -44 -18 -24 -20 -46 -23 -179 -4 -167 6 -208 53
-233 l25 -13 0 -181 c0 -100 0 -453 1 -786 0 -582 1 -607 20 -645 22 -45 59
-81 104 -101 24 -10 167 -13 712 -13 756 -1 724 -4 789 66 56 59 56 59 54 456
0 130 0 259 0 286 l0 49 220 262 c154 185 221 273 226 295 11 60 -43 132 -134
179 -26 14 -40 15 -72 6 -43 -12 -47 -15 -105 -85 -41 -50 -100 -120 -122
-142 -8 -10 -12 8 -13 75 -1 48 -1 94 -1 102 0 8 0 53 0 98 0 72 3 84 18 89
10 2 27 16 38 31 18 24 20 46 23 179 3 125 0 158 -13 187 -23 47 -66 66 -154
66 l-71 0 -1 48 c-1 70 -5 83 -39 116 -26 26 -38 31 -81 31 -46 0 -54 -4 -85
-38 -27 -29 -35 -46 -34 -70 1 -18 2 -44 1 -59 l-1 -28 -420 0 -420 0 0 51 c0
28 -7 66 -16 84 -24 52 -95 78 -149 55z"/>
</g>
</svg>
